:FULLY-SPECIFIED
:DEGREES
2962
root 0.611098 15.6056 -2.56255 5074.06 -98.4821 -5071.15
lowerback 3.67509 1.04528 -8.293
upperback -1.57992 0.948878 0.0151873
thorax -3.85615 0.671357 4.60474
lowerneck -15.9012 1.68084 1.91645
upperneck 20.257 2.56706 -3.94456
head 9.06071 0.8441 -1.36036
rclavicle 2.38542e-015 -4.77083e-015
rhumerus -42.0213 -29.4605 -67.8561
rradius 12.207
rwrist 30.0877
rhand -28.6106 -17.737
rfingers 7.12502
rthumb -1.97559 -47.7076
lclavicle 2.38542e-015 -4.77083e-015
lhumerus -21.4893 -7.80128 88.7388
lradius 33.3969
lwrist 11.3474
lhand -33.0972 15.5455
lfingers 7.12502
lthumb -6.30809 45.4316
rfemur -28.2479 -0.84482 15.6982
rtibia 56.829
rfoot -18.6828 -23.5173
rtoes -10.8534
lfemur -4.5202 -6.2196 -30.7449
ltibia 21.346
lfoot -14.9411 9.76574
ltoes -8.18588
2963
root 0.633506 15.6038 -2.56542 5074.79 -98.4262 -5071.71
lowerback 3.67948 0.999268 -8.36858
upperback -1.62656 0.881411 0.0343968
thorax -3.90012 0.643123 4.67205
lowerneck -15.9157 1.66312 1.8709
upperneck 20.2043 2.55103 -3.93198
head 9.04394 0.83552 -1.34993
rclavicle -2.06736e-014 2.98177e-014
rhumerus -42.496 -29.7633 -67.0862
rradius 12.0978
rwrist 30.6654
rhand -28.3373 -17.7889
rfingers 7.12502
rthumb -1.71168 -47.7618
lclavicle -2.06736e-014 2.98177e-014
lhumerus -20.9587 -8.03086 88.4966
lradius 34.3722
lwrist 11.7381
lhand -32.9194 15.8122
lfingers 7.12502
lthumb -6.13636 45.7033
rfemur -28.953 -0.609673 15.8913
rtibia 55.1038
rfoot -19.3318 -23.8466
rtoes -9.58746
lfemur -3.96589 -6.29988 -30.8613
ltibia 21.0003
lfoot -15.0179 9.747
ltoes -8.67775
2964
root 0.654818 15.6014 -2.57104 5075.78 -98.3447 -5072.54
lowerback 3.65404 0.93992 -8.47861
upperback -1.65462 0.797661 0.0451648
thorax -3.90567 0.60541 4.75162
lowerneck -15.9209 1.6646 1.85318
upperneck 20.0967 2.55548 -3.92437
head 9.00767 0.83951 -1.34285
rclavicle -1.43125e-014 -3.77691e-015
rhumerus -42.958 -30.196 -66.2899
rradius 11.9608
rwrist 31.4945
rhand -28.3196 -17.6918
rfingers 7.12502
rthumb -1.69456 -47.6648
lclavicle -1.43125e-014 -3.77691e-015
lhumerus -20.4565 -8.38085 88.2607
lradius 35.2611
lwrist 11.9395
lhand -32.827 15.6967
lfingers 7.12502
lthumb -6.04718 45.5904
rfemur -29.624 -0.424216 16.1279
rtibia 53.2375
rfoot -19.3181 -24.5351
rtoes -10.0868
lfemur -3.348 -6.36261 -30.9738
ltibia 20.5396
lfoot -15.0003 9.6326
ltoes -9.15436
2965
root 0.679651 15.6076 -2.57598 5076.66 -98.335 -5073.21
lowerback 3.64239 0.911888 -8.59499
upperback -1.70539 0.752323 0.0479235
thorax -3.94837 0.58901 4.82317
lowerneck -15.929 1.67809 1.86576
upperneck 20.0051 2.57695 -3.95266
head 8.97891 0.849451 -1.35113
rclavicle 1.59028e-014 -2.54444e-014
rhumerus -43.2646 -30.3801 -65.7585
rradius 11.9054
rwrist 31.7047
rhand -28.1729 -17.8377
rfingers 7.12502
rthumb -1.55288 -47.8118
lclavicle 1.59028e-014 -2.54444e-014
lhumerus -19.994 -8.68494 88.0639
lradius 36.1947
lwrist 12.4944
lhand -32.8478 15.6767
lfingers 7.12502
lthumb -6.06728 45.5698
rfemur -30.2755 -0.119318 16.2496
rtibia 51.2902
rfoot -19.6366 -24.7025
rtoes -8.96363
lfemur -2.7593 -6.32687 -31.0808
ltibia 19.9898
lfoot -15.0077 9.39053
ltoes -9.22153
2966
root 0.702303 15.609 -2.58057 5077.72 -98.4227 -5074.08
lowerback 3.60908 0.910714 -8.75352
upperback -1.75489 0.74046 0.00848589
thorax -3.98266 0.589067 4.87179
lowerneck -15.9375 1.67486 1.86956
upperneck 19.9116 2.57171 -3.9551
head 8.94829 0.849166 -1.3524
rclavicle -2.70347e-014 2.10712e-014
rhumerus -43.673 -30.7947 -65.0452
rradius 11.7848
rwrist 32.4276
rhand -28.2034 -17.7403
rfingers 7.12502
rthumb -1.58238 -47.7142
lclavicle -2.70347e-014 2.10712e-014
lhumerus -19.5811 -8.92023 87.8558
lradius 36.9919
lwrist 12.5826
lhand -32.7144 15.8078
lfingers 7.12502
lthumb -5.93846 45.7046
rfemur -30.88 0.232114 16.2727
rtibia 49.2695
rfoot -19.6474 -24.7661
rtoes -8.17414
lfemur -2.10044 -6.25478 -31.2964
ltibia 19.3336
lfoot -14.8 9.27756
ltoes -10.1493
2967
root 0.727892 15.6155 -2.58704 5078.74 -98.4702 -5074.92
lowerback 3.60048 0.91311 -8.85167
upperback -1.77834 0.734727 -0.0493825
thorax -4.00291 0.588965 4.86649
lowerneck -15.9711 1.64577 1.84943
upperneck 19.7999 2.52804 -3.91756
head 8.91385 0.833835 -1.34052
rclavicle -2.46493e-014 6.95746e-015
rhumerus -43.8818 -31.1834 -64.5682
rradius 11.6498
rwrist 32.8301
rhand -28.3346 -17.8465
rfingers 7.12502
rthumb -1.70912 -47.8194
lclavicle -2.46493e-014 6.95746e-015
lhumerus -19.1749 -9.27219 87.6393
lradius 37.7548
lwrist 12.7593
lhand -32.7427 15.8435
lfingers 7.12502
lthumb -5.96581 45.7395
rfemur -31.3793 0.655098 16.2844
rtibia 47.1586
rfoot -19.6715 -24.5301
rtoes -7.23433
lfemur -1.37865 -6.06877 -31.4376
ltibia 18.5673
lfoot -14.6986 8.91118
ltoes -10.069
2968
root 0.749592 15.6206 -2.59352 5079.65 -98.5684 -5075.66
lowerback 3.575 0.923213 -8.99129
upperback -1.7914 0.740305 -0.0868317
thorax -4.00556 0.594888 4.90535
lowerneck -16.0163 1.64147 1.82024
upperneck 19.7021 2.52622 -3.90282
head 8.88795 0.834419 -1.32983
rclavicle 1.59028e-015 -1.15295e-014
rhumerus -44.3482 -32.1721 -63.4648
rradius 11.4476
rwrist 34.2438
rhand -28.4436 -17.8256
rfingers 7.12502
rthumb -1.81431 -47.7977
lclavicle 1.59028e-015 -1.15295e-014
lhumerus -18.7992 -9.52766 87.4658
lradius 38.4273
lwrist 12.8107
lhand -32.8622 15.9247
lfingers 7.12502
lthumb -6.08115 45.8174
rfemur -31.7874 0.97943 16.2748
rtibia 44.9475
rfoot -19.1916 -24.0328
rtoes -7.57556
lfemur -0.567663 -5.94218 -31.6311
ltibia 17.7218
lfoot -14.4524 8.73014
ltoes -10.3274
2969
root 0.7729 15.6304 -2.60164 5079.97 -98.5818 -5075.78
lowerback 3.50715 0.911303 -9.0112
upperback -1.81296 0.729401 -0.0810228
thorax -3.9886 0.589983 4.92393
lowerneck -15.97 1.66201 1.78952
upperneck 19.5269 2.56024 -3.89902
head 8.8202 0.852547 -1.31802
rclavicle -1.11319e-014 2.80286e-014
rhumerus -44.4683 -32.6098 -62.9375
rradius 11.2492
rwrist 34.9958
rhand -28.571 -17.7324
rfingers 7.12502
rthumb -1.93742 -47.7034
lclavicle -1.11319e-014 2.80286e-014
lhumerus -18.4846 -9.59434 87.3076
lradius 39.0926
lwrist 12.8452
lhand -33.1754 15.7764
lfingers 7.12502
lthumb -6.38357 45.6602
rfemur -32.1223 1.68654 16.292
rtibia 42.6001
rfoot -18.6706 -23.4721
rtoes -7.4994
lfemur 0.252265 -5.75022 -31.6434
ltibia 16.7183
lfoot -14.0346 8.43214
ltoes -11.8895
2970
root 0.792883 15.646 -2.60984 5080.78 -98.6112 -5076.38
lowerback 3.44509 0.908143 -9.05747
upperback -1.85896 0.724501 -0.116445
thorax -4.0016 0.589838 4.91327
lowerneck -15.9739 1.64868 1.78137
upperneck 19.4476 2.54686 -3.91507
head 8.79351 0.845662 -1.32313
rclavicle -1.66979e-014 -5.96354e-016
rhumerus -44.886 -33.516 -61.9963
rradius 11.0787
rwrist 36.35
rhand -28.7408 -17.7491
rfingers 7.12502
rthumb -2.10135 -47.7184
lclavicle -1.66979e-014 -5.96354e-016
lhumerus -18.2608 -9.82465 87.1836
lradius 39.6769
lwrist 12.899
lhand -33.203 15.7195
lfingers 7.12502
lthumb -6.41018 45.6025
rfemur -32.3724 2.27202 16.1675
rtibia 40.1568
rfoot -17.947 -22.5319
rtoes -7.40847
lfemur 1.16192 -5.67856 -31.7361
ltibia 15.5984
lfoot -13.6518 8.12475
ltoes -11.9766
2971
root 0.8116 15.6632 -2.61786 5081.38 -98.6509 -5076.75
lowerback 3.36449 0.934245 -9.04651
upperback -1.90356 0.763261 -0.161503
thorax -4.00788 0.609368 4.8573
lowerneck -16.0188 1.62044 1.7539
upperneck 19.3973 2.5138 -3.90998
head 8.78306 0.829628 -1.32028
rclavicle -7.95139e-015 3.71727e-014
rhumerus -45.2375 -34.4127 -61.1258
rradius 10.8871
rwrist 37.4986
rhand -28.9002 -17.7776
rfingers 7.12502
rthumb -2.25532 -47.7455
lclavicle -7.95139e-015 3.71727e-014
lhumerus -18.0981 -10.0965 87.1261
lradius 40.2714
lwrist 13.2601
lhand -33.5189 15.401
lfingers 7.12502
lthumb -6.71513 45.2745
rfemur -32.5393 2.94503 16.0173
rtibia 37.6235
rfoot -16.9335 -21.5489
rtoes -7.56882
lfemur 2.09329 -5.48332 -31.7823
ltibia 14.3868
lfoot -13.1384 7.72339
ltoes -12.8078
2972
root 0.828198 15.6826 -2.62676 5082.08 -98.6367 -5077.19
lowerback 3.20818 0.914814 -9.05167
upperback -1.94319 0.751036 -0.16072
thorax -3.9591 0.602418 4.86311
lowerneck -16.003 1.62978 1.74371
upperneck 19.303 2.54001 -3.96355
head 8.74953 0.837399 -1.33293
rclavicle -1.59028e-014 2.10712e-014
rhumerus -45.2442 -34.8544 -60.7311
rradius 10.7701
rwrist 38.2814
rhand -28.8939 -18.0055
rfingers 7.12502
rthumb -2.24921 -47.9734
lclavicle -1.59028e-014 2.10712e-014
lhumerus -17.9626 -10.2032 87.1026
lradius 40.8038
lwrist 13.4493
lhand -33.7806 15.4054
lfingers 7.12502
lthumb -6.96775 45.2707
rfemur -32.6701 3.59672 15.8621
rtibia 35.0677
rfoot -15.6493 -20.8801
rtoes -8.16949
lfemur 3.0599 -5.2977 -31.786
ltibia 13.0234
lfoot -12.5413 7.30975
ltoes -13.3659
2973
root 0.842563 15.7037 -2.63607 5082.73 -98.6025 -5077.59
lowerback 3.06667 0.910617 -8.98414
upperback -2.00346 0.758818 -0.182553
thorax -3.94155 0.605005 4.80259
lowerneck -16.0083 1.60689 1.70045
upperneck 19.276 2.51845 -3.96032
head 8.74006 0.824984 -1.32705
rclavicle 1.66979e-014 6.16232e-015
rhumerus -45.3263 -35.416 -60.2871
rradius 10.6184
rwrist 39.0586
rhand -29.0531 -17.8935
rfingers 7.12502
rthumb -2.40295 -47.8597
lclavicle 1.66979e-014 6.16232e-015
lhumerus -17.8935 -10.2904 87.0813
lradius 41.1747
lwrist 13.2348
lhand -33.6458 15.4209
lfingers 7.12502
lthumb -6.83764 45.2905
rfemur -32.7526 4.35413 15.6422
rtibia 32.5659
rfoot -14.7084 -20.3406
rtoes -8.18931
lfemur 4.16863 -5.33007 -31.7922
ltibia 11.4736
lfoot -11.7673 6.99515
ltoes -13.4464
2974
root 0.85679 15.7225 -2.6474 5083.23 -98.5034 -5077.82
lowerback 2.92459 0.891331 -8.9013
upperback -2.07003 0.749129 -0.156918
thorax -3.92801 0.599899 4.78453
lowerneck -16.0315 1.61687 1.70081
upperneck 19.2681 2.5482 -4.03405
head 8.74367 0.830905 -1.34837
rclavicle -1.59028e-015 4.21423e-014
rhumerus -45.3769 -36.1042 -59.715
rradius 10.4249
rwrist 39.9638
rhand -29.1714 -17.724
rfingers 7.12502
rthumb -2.5172 -47.6889
lclavicle -1.59028e-015 4.21423e-014
lhumerus -17.8961 -10.3734 87.176
lradius 41.5634
lwrist 13.6293
lhand -33.9032 15.2535
lfingers 7.12502
lthumb -7.08611 45.1149
rfemur -32.822 5.57676 15.3165
rtibia 30.1796
rfoot -13.9143 -20.4698
rtoes -8.05758
lfemur 5.27899 -5.14565 -31.6811
ltibia 9.85044
lfoot -10.9632 6.44922
ltoes -13.6296
2975
root 0.86662 15.7369 -2.65924 5084.07 -98.3966 -5078.46
lowerback 2.79066 0.873232 -8.83272
upperback -2.13106 0.738576 -0.15029
thorax -3.91317 0.594039 4.7545
lowerneck -16.0055 1.59996 1.63196
upperneck 19.2609 2.53887 -4.01975
head 8.73518 0.823225 -1.33327
rclavicle -7.95139e-015 -1.59028e-015
rhumerus -45.097 -36.1089 -59.9005
rradius 10.4358
rwrist 40.0452
rhand -29.0631 -17.9333
rfingers 7.12502
rthumb -2.4127 -47.8994
lclavicle -7.95139e-015 -1.59028e-015
lhumerus -17.9597 -10.48 87.2816
lradius 41.8304
lwrist 13.7551
lhand -33.9171 15.3162
lfingers 7.12502
lthumb -7.09951 45.1771
rfemur -32.8506 6.91829 14.8406
rtibia 28.0251
rfoot -13.3145 -20.9488
rtoes -8.61812
lfemur 6.60488 -4.99423 -31.6373
ltibia 8.04966
lfoot -10.0598 5.96078
ltoes -14.2027
